<svg xmlns="http://www.w3.org/2000/svg" xmlns:xlink="http://www.w3.org/1999/xlink" width="18.24" height="20.38" viewBox="0 0 18.24 20.38"><defs><style>.cls-1,.cls-4,.cls-7{fill:none;}.cls-2{clip-path:url(#clip-path);}.cls-3{fill:url(#Neues_Verlaufsfeld_1);}.cls-4,.cls-7{stroke:#fff;}.cls-5{clip-path:url(#clip-path-2);}.cls-6{fill:url(#Neues_Verlaufsfeld_1-2);}.cls-7{stroke-width:0.75px;}.cls-8{clip-path:url(#clip-path-3);}.cls-9{fill:url(#Neues_Verlaufsfeld_1-3);}.cls-10{clip-path:url(#clip-path-4);}.cls-11{fill:url(#Neues_Verlaufsfeld_1-4);}.cls-12{clip-path:url(#clip-path-5);}.cls-13{fill:url(#Neues_Verlaufsfeld_1-5);}</style><clipPath id="clip-path"><rect class="cls-1" x="0.5" y="0.5" width="17.24" height="19.38"/></clipPath><linearGradient id="Neues_Verlaufsfeld_1" x1="-355.36" y1="692.54" x2="-354.36" y2="692.54" gradientTransform="matrix(18.42, 0, 0, -18.42, 6545.56, 12766.65)" gradientUnits="userSpaceOnUse"><stop offset="0" stop-color="#51ade6"/><stop offset="1" stop-color="#17468e"/></linearGradient><clipPath id="clip-path-2"><rect class="cls-1" x="2.93" y="2.59" width="12.38" height="6.68"/></clipPath><linearGradient id="Neues_Verlaufsfeld_1-2" x1="-348.68" y1="703.91" x2="-347.68" y2="703.91" gradientTransform="matrix(13.75, 0, 0, -13.75, 4796.26, 9684.02)" xlink:href="#Neues_Verlaufsfeld_1"/><clipPath id="clip-path-3"><rect class="cls-1" x="2.93" y="11.12" width="12.38" height="6.68"/></clipPath><linearGradient id="Neues_Verlaufsfeld_1-3" x1="-348.68" y1="703.91" x2="-347.68" y2="703.91" gradientTransform="matrix(13.75, 0, 0, -13.75, 4796.26, 9692.54)" xlink:href="#Neues_Verlaufsfeld_1"/><clipPath id="clip-path-4"><path class="cls-1" d="M7.75,5.93A1.38,1.38,0,1,0,9.12,4.56,1.37,1.37,0,0,0,7.75,5.93"/></clipPath><linearGradient id="Neues_Verlaufsfeld_1-4" x1="-258.11" y1="861.81" x2="-257.11" y2="861.81" gradientTransform="matrix(3.1, 0, 0, -3.1, 807.12, 2675.54)" xlink:href="#Neues_Verlaufsfeld_1"/><clipPath id="clip-path-5"><path class="cls-1" d="M7.75,14.45a1.38,1.38,0,1,0,1.37-1.37,1.37,1.37,0,0,0-1.37,1.37"/></clipPath><linearGradient id="Neues_Verlaufsfeld_1-5" x1="-258.11" y1="861.81" x2="-257.11" y2="861.81" gradientTransform="matrix(3.1, 0, 0, -3.1, 807.12, 2684.06)" xlink:href="#Neues_Verlaufsfeld_1"/></defs><title>Element 7</title><g id="Ebene_2" data-name="Ebene 2"><g id="Ebene_1-2" data-name="Ebene 1"><g class="cls-2"><rect class="cls-3" x="0.5" y="0.5" width="17.24" height="19.38"/></g><rect class="cls-4" x="0.5" y="0.5" width="17.24" height="19.38"/><g class="cls-5"><rect class="cls-6" x="2.93" y="2.59" width="12.38" height="6.68"/></g><rect class="cls-7" x="2.93" y="2.59" width="12.38" height="6.68"/><g class="cls-8"><rect class="cls-9" x="2.93" y="11.12" width="12.38" height="6.68"/></g><rect class="cls-7" x="2.93" y="11.12" width="12.38" height="6.68"/><g class="cls-10"><rect class="cls-11" x="7.75" y="4.56" width="2.75" height="2.75"/></g><circle class="cls-7" cx="9.12" cy="5.93" r="1.37"/><g class="cls-12"><rect class="cls-13" x="7.75" y="13.08" width="2.75" height="2.75"/></g><circle class="cls-7" cx="9.12" cy="14.45" r="1.37"/></g></g></svg>