<svg xmlns="http://www.w3.org/2000/svg" xmlns:xlink="http://www.w3.org/1999/xlink" width="28.62" height="28.63" viewBox="0 0 28.62 28.63"><defs><style>.cls-1{fill:url(#Neues_Verlaufsfeld_1);}.cls-2{fill:url(#Neues_Verlaufsfeld_1-2);}.cls-3{fill:#fff;}</style><linearGradient id="Neues_Verlaufsfeld_1" x1="0.27" y1="20.89" x2="28.27" y2="20.89" gradientUnits="userSpaceOnUse"><stop offset="0" stop-color="#51ade6"/><stop offset="1" stop-color="#17468e"/></linearGradient><linearGradient id="Neues_Verlaufsfeld_1-2" x1="8.11" y1="16.33" x2="20.51" y2="16.33" xlink:href="#Neues_Verlaufsfeld_1"/></defs><title>Element 5</title><g id="Ebene_2" data-name="Ebene 2"><g id="Ebene_1-2" data-name="Ebene 1"><rect class="cls-1" x="0.27" y="13.89" width="28" height="14"/><rect class="cls-2" x="8.11" y="4.77" width="12.4" height="23.11"/><path class="cls-3" d="M28.15,13.36H20.51V6.68H21a.48.48,0,0,0,.48-.48V4.3A.48.48,0,0,0,21,3.82h-6.2V2.73l2.53-.84a.48.48,0,0,0,.33-.46A.47.47,0,0,0,17.32,1L14.46,0A.47.47,0,0,0,14,.09a.5.5,0,0,0-.2.39V3.82H7.63a.47.47,0,0,0-.47.48V6.2a.47.47,0,0,0,.47.48h.48v6.68H.48a.47.47,0,0,0-.48.48V28.15a.48.48,0,0,0,.48.48H28.15a.48.48,0,0,0,.47-.48V13.84A.47.47,0,0,0,28.15,13.36ZM14.79,1.14l.88.29-.88.3ZM8.11,4.77h12.4v1H8.11ZM1,14.31H8.11V27.67H1ZM9.06,6.68h10.5v21H17.65v-6.2a.48.48,0,0,0-.48-.48H11.45a.49.49,0,0,0-.48.48v6.2H9.06ZM11.93,22h1.9v5.72h-1.9Zm2.86,5.72V22H16.7v5.72Zm12.88,0H20.51V14.31h7.16Z"/><path class="cls-3" d="M21.47,19.08h1.91a.47.47,0,0,0,.47-.47V16.7a.48.48,0,0,0-.47-.48H21.47a.48.48,0,0,0-.48.48v1.91A.47.47,0,0,0,21.47,19.08Zm.47-1.9h1v.95h-1Z"/><path class="cls-3" d="M24.81,19.08h1.9a.47.47,0,0,0,.48-.47V16.7a.48.48,0,0,0-.48-.48h-1.9a.48.48,0,0,0-.48.48v1.91A.47.47,0,0,0,24.81,19.08Zm.47-1.9h1v.95h-1Z"/><path class="cls-3" d="M10,11.45h1.91A.47.47,0,0,0,12.4,11V9.07a.47.47,0,0,0-.47-.48H10a.47.47,0,0,0-.48.48V11A.47.47,0,0,0,10,11.45Zm.48-1.91h.95v1H10.5Z"/><path class="cls-3" d="M13.36,11.45h1.91a.47.47,0,0,0,.47-.48V9.07a.47.47,0,0,0-.47-.48H13.36a.47.47,0,0,0-.48.48V11A.47.47,0,0,0,13.36,11.45Zm.47-1.91h1v1h-1Z"/><path class="cls-3" d="M16.7,11.45h1.9a.47.47,0,0,0,.48-.48V9.07a.47.47,0,0,0-.48-.48H16.7a.47.47,0,0,0-.48.48V11A.47.47,0,0,0,16.7,11.45Zm.47-1.91h1v1h-1Z"/><path class="cls-3" d="M10,15.27h1.91a.48.48,0,0,0,.47-.48V12.88a.47.47,0,0,0-.47-.47H10a.47.47,0,0,0-.48.47v1.91A.48.48,0,0,0,10,15.27Zm.48-1.91h.95v1H10.5Z"/><path class="cls-3" d="M13.36,15.27h1.91a.48.48,0,0,0,.47-.48V12.88a.47.47,0,0,0-.47-.47H13.36a.47.47,0,0,0-.48.47v1.91A.48.48,0,0,0,13.36,15.27Zm.47-1.91h1v1h-1Z"/><path class="cls-3" d="M16.7,15.27h1.9a.48.48,0,0,0,.48-.48V12.88a.47.47,0,0,0-.48-.47H16.7a.47.47,0,0,0-.48.47v1.91A.48.48,0,0,0,16.7,15.27Zm.47-1.91h1v1h-1Z"/><path class="cls-3" d="M11.93,19.08a.47.47,0,0,0,.47-.47V16.7a.48.48,0,0,0-.47-.48H10a.48.48,0,0,0-.48.48v1.91a.47.47,0,0,0,.48.47Zm-1.43-1.9h.95v.95H10.5Z"/><path class="cls-3" d="M13.36,19.08h1.91a.47.47,0,0,0,.47-.47V16.7a.48.48,0,0,0-.47-.48H13.36a.48.48,0,0,0-.48.48v1.91A.47.47,0,0,0,13.36,19.08Zm.47-1.9h1v.95h-1Z"/><path class="cls-3" d="M16.7,19.08h1.9a.47.47,0,0,0,.48-.47V16.7a.48.48,0,0,0-.48-.48H16.7a.48.48,0,0,0-.48.48v1.91A.47.47,0,0,0,16.7,19.08Zm.47-1.9h1v.95h-1Z"/><path class="cls-3" d="M21.47,22.42h1.91a.47.47,0,0,0,.47-.47V20a.47.47,0,0,0-.47-.48H21.47A.47.47,0,0,0,21,20V22A.47.47,0,0,0,21.47,22.42Zm.47-1.9h1v.95h-1Z"/><path class="cls-3" d="M24.81,22.42h1.9a.47.47,0,0,0,.48-.47V20a.47.47,0,0,0-.48-.48h-1.9a.47.47,0,0,0-.48.48V22A.47.47,0,0,0,24.81,22.42Zm.47-1.9h1v.95h-1Z"/><path class="cls-3" d="M7.16,16.22H5.25a.48.48,0,0,0-.48.48v1.91a.47.47,0,0,0,.48.47H7.16a.47.47,0,0,0,.47-.47V16.7A.48.48,0,0,0,7.16,16.22Zm-.48,1.91h-1v-.95h1Z"/><path class="cls-3" d="M3.82,16.22H1.91a.48.48,0,0,0-.48.48v1.91a.47.47,0,0,0,.48.47H3.82a.47.47,0,0,0,.47-.47V16.7A.48.48,0,0,0,3.82,16.22Zm-.48,1.91H2.39v-.95h.95Z"/><path class="cls-3" d="M7.16,19.56H5.25a.47.47,0,0,0-.48.48V22a.47.47,0,0,0,.48.47H7.16A.47.47,0,0,0,7.63,22V20A.47.47,0,0,0,7.16,19.56Zm-.48,1.91h-1v-.95h1Z"/><path class="cls-3" d="M3.82,19.56H1.91a.47.47,0,0,0-.48.48V22a.47.47,0,0,0,.48.47H3.82A.47.47,0,0,0,4.29,22V20A.47.47,0,0,0,3.82,19.56Zm-.48,1.91H2.39v-.95h.95Z"/></g></g></svg>