<svg xmlns="http://www.w3.org/2000/svg" xmlns:xlink="http://www.w3.org/1999/xlink" width="39.32" height="39.32" viewBox="0 0 39.32 39.32"><defs><style>.cls-1,.cls-5{fill:none;}.cls-2{clip-path:url(#clip-path);}.cls-3{fill:url(#Unbenannter_Verlauf_5);}.cls-4{clip-path:url(#clip-path-2);}.cls-5{stroke:#fff;}</style><clipPath id="clip-path" transform="translate(9.01 9.01)"><path class="cls-1" d="M7.83,10.65a2.82,2.82,0,1,1,2.82,2.82,2.82,2.82,0,0,1-2.82-2.82M8.75.5V3a7.69,7.69,0,0,0-2.15.89L4.82,2.13,2.13,4.82,3.92,6.6A7.69,7.69,0,0,0,3,8.75H.5v3.8H3a7.75,7.75,0,0,0,.89,2.14L2.13,16.48l2.69,2.69L6.6,17.38a8,8,0,0,0,2.15.89v2.52h3.8V18.27a8.07,8.07,0,0,0,2.14-.89l1.79,1.79,2.69-2.69-1.79-1.79a8.07,8.07,0,0,0,.89-2.14h2.52V8.75H18.27a8,8,0,0,0-.89-2.15l1.79-1.78L16.48,2.13,14.69,3.92A7.75,7.75,0,0,0,12.55,3V.5Z"/></clipPath><linearGradient id="Unbenannter_Verlauf_5" x1="-544.53" y1="663.61" x2="-543.53" y2="663.61" gradientTransform="matrix(17.77, 0, 0, -17.77, 9677.62, 11801.52)" gradientUnits="userSpaceOnUse"><stop offset="0" stop-color="#51ade6"/><stop offset="1" stop-color="#17468e"/></linearGradient><clipPath id="clip-path-2" transform="translate(9.01 9.01)"><rect class="cls-1" width="21.29" height="21.29"/></clipPath></defs><title>Element 1</title><g id="Ebene_2" data-name="Ebene 2"><g id="Ebene_1-2" data-name="Ebene 1"><g class="cls-2"><rect class="cls-3" x="-3.48" y="-3.48" width="28.25" height="28.25" transform="translate(4.84 16.99) rotate(-34.8)"/></g><g class="cls-4"><path class="cls-5" d="M13.47,10.65a2.82,2.82,0,1,1-2.82-2.82A2.83,2.83,0,0,1,13.47,10.65Zm4.8-1.9a8,8,0,0,0-.89-2.15l1.79-1.78L16.48,2.13,14.69,3.92A7.75,7.75,0,0,0,12.55,3V.5H8.75V3a7.69,7.69,0,0,0-2.15.89L4.82,2.13,2.13,4.82,3.92,6.6A7.69,7.69,0,0,0,3,8.75H.5v3.8H3a7.75,7.75,0,0,0,.89,2.14L2.13,16.48l2.69,2.69L6.6,17.38a8.33,8.33,0,0,0,2.15.89v2.52h3.8V18.27a8.41,8.41,0,0,0,2.14-.89l1.79,1.79,2.69-2.69-1.79-1.79a8.07,8.07,0,0,0,.89-2.14h2.52V8.75Z" transform="translate(9.01 9.01)"/></g></g></g></svg>