<svg xmlns="http://www.w3.org/2000/svg" xmlns:xlink="http://www.w3.org/1999/xlink" width="22.85" height="22.85" viewBox="0 0 22.85 22.85"><defs><style>.cls-1{fill:none;}.cls-2{clip-path:url(#clip-path);}.cls-3{fill:url(#Unbenannter_Verlauf_5);}.cls-4{fill:#fff;}.cls-5{fill:url(#Unbenannter_Verlauf_5-2);}</style><clipPath id="clip-path" transform="translate(-0.25 -0.25)"><rect class="cls-1" width="23.35" height="23.35"/></clipPath><linearGradient id="Unbenannter_Verlauf_5" x1="-383.25" y1="360.87" x2="-382.25" y2="360.87" gradientTransform="matrix(-3.29, -3.29, -3.29, 3.29, -60.23, -2432.22)" gradientUnits="userSpaceOnUse"><stop offset="0" stop-color="#51ade6"/><stop offset="1" stop-color="#17468e"/></linearGradient><linearGradient id="Unbenannter_Verlauf_5-2" x1="-322.61" y1="574.44" x2="-321.61" y2="574.44" gradientTransform="matrix(5.51, 0, 0, -5.51, 1785.66, 3175.38)" xlink:href="#Unbenannter_Verlauf_5"/></defs><title>Element 2</title><g id="Ebene_2" data-name="Ebene 2"><g id="Ebene_1-2" data-name="Ebene 1"><g class="cls-2"><path class="cls-3" d="M19.5,9.72l-1,.24A6.78,6.78,0,0,0,17.73,8l-.4-.67L19,5.68,17.66,4.34,16,6l-.67-.4a6.84,6.84,0,0,0-1.93-.8l-.75-.19V2.25H10.72V4.63L10,4.82A6.78,6.78,0,0,0,8,5.62L7.37,6,5.68,4.34,4.34,5.68,6,7.37,5.62,8A6.78,6.78,0,0,0,4.82,10l-.19.76H2.25v1.91H4.63l.19.75a6.84,6.84,0,0,0,.8,1.93L6,16,4.34,17.66,5.68,19l1.69-1.68.67.4a6.78,6.78,0,0,0,1.92.8l.76.19V21.1h1.91V18.72l.75-.19a6.84,6.84,0,0,0,1.93-.8l.67-.4L17.66,19,19,17.66,17.33,16l.4-.67a6.84,6.84,0,0,0,.8-1.93l.19-.75H21.1V10.72H18.72L18.53,10l1-.24v-1h3.6v5.91H19.5v-1l1,.24a9.26,9.26,0,0,1-1,2.47l-.86-.51.71-.71,2.54,2.54-4.18,4.18-2.54-2.55.71-.7.51.85a9,9,0,0,1-2.47,1l-.24-1h1v3.6H8.72V19.5h1l-.24,1a9,9,0,0,1-2.48-1l.52-.85.71.7L5.68,21.84,1.51,17.66l2.54-2.54.71.71-.86.51a8.94,8.94,0,0,1-1-2.47l1-.24v1H.25V8.72h3.6v1l-1-.24A9.33,9.33,0,0,1,3.9,7l.86.52-.71.71L1.51,5.68,5.68,1.51,8.23,4.05l-.71.71L7,3.9a8.94,8.94,0,0,1,2.47-1l.24,1h-1V.25h5.91v3.6h-1l.24-1a8.94,8.94,0,0,1,2.47,1l-.51.86-.71-.71,2.54-2.54,4.18,4.17L19.3,8.23l-.71-.71L19.45,7a9.26,9.26,0,0,1,1,2.47l-1,.24v0Z" transform="translate(-0.25 -0.25)"/><path class="cls-4" d="M11.67,14.57a2.9,2.9,0,1,0-2.89-2.9,2.9,2.9,0,0,0,2.89,2.9" transform="translate(-0.25 -0.25)"/><path class="cls-5" d="M11.67,14.57v-1a1.9,1.9,0,1,0-1.89-1.9,1.9,1.9,0,0,0,1.89,1.9v2a3.9,3.9,0,1,1,3.9-3.9,3.89,3.89,0,0,1-3.9,3.9Z" transform="translate(-0.25 -0.25)"/></g></g></g></svg>