<svg id="bf1d7fc5-338e-48f6-ae1e-44a6d7170b1c" data-name="Ebene 1" xmlns="http://www.w3.org/2000/svg" xmlns:xlink="http://www.w3.org/1999/xlink" width="52" height="52" viewBox="0 0 52 52"><defs><style>.b7b55b7b-928c-4806-86d8-e65d12898f95{fill:url(#b814bf15-9cbe-4e6f-bfcf-f6b0f01c7f85);}.fe985b2d-ff11-404e-bd62-64ec4bf5d120{fill:url(#b1f54232-a748-42ff-9089-275dc3b36904);}</style><linearGradient id="b814bf15-9cbe-4e6f-bfcf-f6b0f01c7f85" x1="10.69" y1="16.93" x2="27.43" y2="16.93" gradientUnits="userSpaceOnUse"><stop offset="0" stop-color="#51ade6"/><stop offset="1" stop-color="#17468e"/></linearGradient><linearGradient id="b1f54232-a748-42ff-9089-275dc3b36904" x1="2.33" y1="26" x2="51.08" y2="26" xlink:href="#b814bf15-9cbe-4e6f-bfcf-f6b0f01c7f85"/></defs><title>icon-24</title><path class="b7b55b7b-928c-4806-86d8-e65d12898f95" d="M18.82,25.81A8.88,8.88,0,1,0,9.9,16.93,8.89,8.89,0,0,0,18.82,25.81Zm0-13.74a4.87,4.87,0,1,1-4.9,4.86A4.89,4.89,0,0,1,18.82,12.07Z"/><path class="fe985b2d-ff11-404e-bd62-64ec4bf5d120" d="M0,0V52H52V0Zm4,4H48V15.49L34.44,32l-6.52-7.11L6.31,48H4.05ZM31.87,35.11,21.32,48H11.8L27.89,30.77ZM26.51,48,48,21.83V48Z"/></svg>