<svg id="Ebene_1" data-name="Ebene 1" xmlns="http://www.w3.org/2000/svg" xmlns:xlink="http://www.w3.org/1999/xlink" width="52" height="52" viewBox="0 0 52 52"><defs><style>.cls-1{fill:url(#Unbenannter_Verlauf_4);}.cls-2{fill:url(#Unbenannter_Verlauf_2);}</style><linearGradient id="Unbenannter_Verlauf_4" x1="9.01" y1="32.71" x2="41.01" y2="21.06" gradientUnits="userSpaceOnUse"><stop offset="0" stop-color="#2babe3"/><stop offset="1" stop-color="#0d468f"/></linearGradient><linearGradient id="Unbenannter_Verlauf_2" y1="-3873.06" x2="52.06" y2="-3873.06" gradientTransform="matrix(1, 0, 0, -1, 0, -3847)" gradientUnits="userSpaceOnUse"><stop offset="0" stop-color="#51ade6"/><stop offset="1" stop-color="#17468e"/></linearGradient></defs><path class="cls-1" d="M12.46,22.24a15.83,15.83,0,0,1,1.78-4.54,14.68,14.68,0,0,1,3.16-3.82,15.18,15.18,0,0,1,4.43-2.64,15.46,15.46,0,0,1,5.6-1,14.23,14.23,0,0,1,7.44,1.88,12.07,12.07,0,0,1,4.68,4.92L34.9,20.27a7.87,7.87,0,0,0-1.5-2.22,7.25,7.25,0,0,0-1.89-1.43,8.83,8.83,0,0,0-2.1-.77,10,10,0,0,0-2.15-.24,8.65,8.65,0,0,0-3.1.53,8.34,8.34,0,0,0-2.44,1.43,9.09,9.09,0,0,0-1.8,2.1,11.13,11.13,0,0,0-1.14,2.57H30l-1.31,3.25H18.21V26a12.34,12.34,0,0,0,.13,1.76H28.62L27.3,31h-8a10.23,10.23,0,0,0,3.22,4,8,8,0,0,0,4.85,1.53,10.06,10.06,0,0,0,2.2-.26,8.56,8.56,0,0,0,2.17-.84,8.06,8.06,0,0,0,1.91-1.47A6.67,6.67,0,0,0,35,31.77l5,2.85a9.44,9.44,0,0,1-2.13,3.1A13.53,13.53,0,0,1,34.74,40a16.45,16.45,0,0,1-7.57,1.89A13.14,13.14,0,0,1,22.32,41a15.73,15.73,0,0,1-4.11-2.35A15.36,15.36,0,0,1,15,35.19,17.23,17.23,0,0,1,12.94,31H8.38l1.36-3.25H12.2a13.28,13.28,0,0,1-.14-1.93v-.31H9l1.32-3.25Z"/><path class="cls-2" d="M26,.06a26,26,0,1,0,26,26A26,26,0,0,0,26,.06ZM26,48A21.92,21.92,0,1,1,47.92,26.06h0A22,22,0,0,1,26,48Z"/></svg>