<svg id="ea77882d-1478-4aad-8d36-02a66f03f982" data-name="Ebene 1" xmlns="http://www.w3.org/2000/svg" xmlns:xlink="http://www.w3.org/1999/xlink" width="52" height="52" viewBox="0 0 52 52"><defs><style>.a67f2abb-cdd7-4165-ba31-409cee8a8f4a{fill:url(#bb6749c9-56e9-420c-9eb1-cc8644579884);}.a7be717a-4ab9-4585-befa-1694a6b8311b{fill:url(#b6eeb214-9916-4f4d-9cc4-c98401231b08);}</style><linearGradient id="bb6749c9-56e9-420c-9eb1-cc8644579884" y1="26" x2="52.06" y2="26" gradientUnits="userSpaceOnUse"><stop offset="0" stop-color="#51ade6"/><stop offset="1" stop-color="#17468e"/></linearGradient><linearGradient id="b6eeb214-9916-4f4d-9cc4-c98401231b08" x1="10.9" x2="41.14" xlink:href="#bb6749c9-56e9-420c-9eb1-cc8644579884"/></defs><title>icon-18</title><path class="a67f2abb-cdd7-4165-ba31-409cee8a8f4a" d="M26,0A26,26,0,1,0,52,26,26,26,0,0,0,26,0Zm0,47.92A21.92,21.92,0,1,1,47.92,26,22,22,0,0,1,26,47.92Z"/><path class="a7be717a-4ab9-4585-befa-1694a6b8311b" d="M26,10.9A15.1,15.1,0,1,0,41.1,26,15.1,15.1,0,0,0,26,10.9ZM26,37A11,11,0,1,1,37,26,11,11,0,0,1,26,37Z"/></svg>