<svg id="bafb030b-70ef-4f5a-8aa3-580cdf16580a" data-name="Ebene 1" xmlns="http://www.w3.org/2000/svg" xmlns:xlink="http://www.w3.org/1999/xlink" width="52" height="52" viewBox="0 0 52 52"><defs><style>.be3ee134-c73e-40f3-a068-8372349ebfca{fill:url(#b154aa90-7ab6-4e32-9942-856a00707cbb);}.a8733d8d-01ee-4cf5-b098-8c936eb90321{fill:url(#b86b03ae-625d-4bac-8262-5703cbfa1a31);}.e6828ec0-8868-4762-816d-a8f474e2a4a6{fill:url(#e1a3c007-bccd-4dd7-a3db-b161a06c9e56);}.b463dfdd-457c-4dae-9f02-ac207b15a4b5{fill:url(#f2c4bf9e-e0f7-474b-a005-995c1f7d0871);}</style><linearGradient id="b154aa90-7ab6-4e32-9942-856a00707cbb" x1="5.35" y1="26" x2="46.65" y2="26" gradientUnits="userSpaceOnUse"><stop offset="0" stop-color="#51ade6"/><stop offset="1" stop-color="#17468e"/></linearGradient><linearGradient id="b86b03ae-625d-4bac-8262-5703cbfa1a31" x1="13.74" y1="17.91" x2="38.26" y2="17.91" xlink:href="#b154aa90-7ab6-4e32-9942-856a00707cbb"/><linearGradient id="e1a3c007-bccd-4dd7-a3db-b161a06c9e56" x1="13.74" y1="25.33" x2="38.26" y2="25.33" xlink:href="#b154aa90-7ab6-4e32-9942-856a00707cbb"/><linearGradient id="f2c4bf9e-e0f7-474b-a005-995c1f7d0871" x1="13.74" y1="32.75" x2="38.26" y2="32.75" xlink:href="#b154aa90-7ab6-4e32-9942-856a00707cbb"/></defs><title>icon-22</title><path class="be3ee134-c73e-40f3-a068-8372349ebfca" d="M5.35,0V52h41.3V0ZM42.63,48H9.37V4H42.63Z"/><polygon class="a8733d8d-01ee-4cf5-b098-8c936eb90321" points="38.26 15.9 13.74 15.9 13.74 17.91 13.74 19.92 38.26 19.92 38.26 15.9"/><polygon class="e6828ec0-8868-4762-816d-a8f474e2a4a6" points="38.26 23.32 13.74 23.32 13.74 25.33 13.74 27.34 38.26 27.34 38.26 23.32"/><polygon class="b463dfdd-457c-4dae-9f02-ac207b15a4b5" points="38.26 30.74 13.74 30.74 13.74 32.75 13.74 34.76 38.26 34.76 38.26 30.74"/></svg>