<svg id="b1586f16-6317-4a9e-8262-1aa87cb088c1" data-name="Ebene 1" xmlns="http://www.w3.org/2000/svg" xmlns:xlink="http://www.w3.org/1999/xlink" width="52" height="52" viewBox="0 0 52 52"><defs><style>.a6961dc0-ce0a-4297-bd40-551dfa676088{fill:none;}.f45596ea-fddb-4d02-ad99-343fbea25aef{clip-path:url(#b793b8a8-c766-49e9-80e7-b481889dd213);}.bd542b73-d9aa-45f1-8275-1f7b9c1db93f{fill:url(#ab2a3f84-37f5-4896-a0d4-eacc9254c043);}</style><clipPath id="b793b8a8-c766-49e9-80e7-b481889dd213"><path class="a6961dc0-ce0a-4297-bd40-551dfa676088" d="M40.66,45.36a4.53,4.53,0,0,0,4.53,4.47,4.6,4.6,0,0,0,4.61-4.47,4.65,4.65,0,0,0-4.61-4.54,4.59,4.59,0,0,0-4.53,4.54M18.05,2.17C10.42,2.17,4.7,6.31,2.93,12l5.12,2.3c1.32-4.08,4.15-6.77,9.8-6.77s9,3.41,9,7.82c0,5.19-4.53,8.21-9.4,11.17C9.89,30.9,2.2,36.88,2.2,49h31V43.39H8.84c1.05-5.33,5.53-8.75,11.18-12,6.77-4,12.75-7.83,12.75-15.91C32.77,7.56,27.25,2.17,18.05,2.17Z"/></clipPath><linearGradient id="ab2a3f84-37f5-4896-a0d4-eacc9254c043" x1="-634.33" y1="53.53" x2="-633.4" y2="53.53" gradientTransform="matrix(51.22, 0, 0, -51.22, 32493.79, 2767.78)" gradientUnits="userSpaceOnUse"><stop offset="0" stop-color="#51ade6"/><stop offset="1" stop-color="#17468e"/></linearGradient></defs><title>icon-10</title><g class="f45596ea-fddb-4d02-ad99-343fbea25aef"><rect class="bd542b73-d9aa-45f1-8275-1f7b9c1db93f" x="2.2" y="2.17" width="47.59" height="47.66"/></g></svg>