<svg id="fb4b889c-9add-46ce-a070-3619b3e2fb47" data-name="Ebene 1" xmlns="http://www.w3.org/2000/svg" xmlns:xlink="http://www.w3.org/1999/xlink" width="52" height="52" viewBox="0 0 52 52"><defs><style>.bac0f072-d010-422a-9900-345ae6ba911e{fill:url(#a3fc29f0-9102-43ea-9d32-6a563a8f1f7e);}.afe8c59b-f296-4578-9f97-ee0cf8c76e0d{fill:url(#f1299540-14a5-4a7b-8faf-e5fbf7861fd6);}</style><linearGradient id="a3fc29f0-9102-43ea-9d32-6a563a8f1f7e" y1="32.13" x2="44.3" y2="32.13" gradientUnits="userSpaceOnUse"><stop offset="0" stop-color="#51ade6"/><stop offset="1" stop-color="#17468e"/></linearGradient><linearGradient id="f1299540-14a5-4a7b-8faf-e5fbf7861fd6" x1="7.74" y1="19.68" x2="52" y2="19.68" xlink:href="#a3fc29f0-9102-43ea-9d32-6a563a8f1f7e"/></defs><title>icon-1</title><path class="bac0f072-d010-422a-9900-345ae6ba911e" d="M39.92,14.09l-2.87,2.33.28.36A14.37,14.37,0,0,1,40.6,26,14.63,14.63,0,0,1,26,40.55H7l2.78-3L7.06,35.05,0,42.61l7.08,7.57,2.7-2.53-3.17-3.4H26A18.28,18.28,0,0,0,40.21,14.44Z"/><path class="afe8c59b-f296-4578-9f97-ee0cf8c76e0d" d="M44.94,1.82,42.23,4.35l3.12,3.34H26A18.32,18.32,0,0,0,7.74,26a18.06,18.06,0,0,0,3.84,11.22l.28.35,2.92-2.27-.28-.36A14.44,14.44,0,0,1,11.44,26,14.64,14.64,0,0,1,26,11.39H45l-2.82,3L44.92,17,52,9.38Z"/></svg>