<svg id="b8ea8a8f-b258-4122-a963-231d108f3c4a" data-name="Ebene 1" xmlns="http://www.w3.org/2000/svg" xmlns:xlink="http://www.w3.org/1999/xlink" width="52" height="52" viewBox="0 0 52 52"><defs><style>.bf952b46-95a8-4d6c-a99c-20a7655588f1{fill:url(#fc44b51f-42d4-4ca3-a5d5-f9af25d214c1);}.b6e621a5-f957-43a5-a46c-a78ab772b752{fill:url(#b5814a74-33ea-4a6e-9b93-a80c75f13da0);}</style><linearGradient id="fc44b51f-42d4-4ca3-a5d5-f9af25d214c1" y1="26" x2="52" y2="26" gradientUnits="userSpaceOnUse"><stop offset="0" stop-color="#51ade6"/><stop offset="1" stop-color="#17468e"/></linearGradient><linearGradient id="b5814a74-33ea-4a6e-9b93-a80c75f13da0" x1="18.6" y1="25.95" x2="36.69" y2="25.95" xlink:href="#fc44b51f-42d4-4ca3-a5d5-f9af25d214c1"/></defs><title>icon-23</title><path class="bf952b46-95a8-4d6c-a99c-20a7655588f1" d="M26,0A26,26,0,1,0,52,26,26,26,0,0,0,26,0Zm0,48A22,22,0,1,1,48,26,22,22,0,0,1,26,48Z"/><polygon class="b6e621a5-f957-43a5-a46c-a78ab772b752" points="23.62 12.45 21.11 12.45 18.6 12.45 18.6 39.45 21.48 39.45 23.62 39.45 36.69 39.45 36.69 36.94 36.69 34.43 23.62 34.43 23.62 12.45"/></svg>