<svg id="b22d5a23-a384-426c-aada-853f302bace0" data-name="Ebene 1" xmlns="http://www.w3.org/2000/svg" xmlns:xlink="http://www.w3.org/1999/xlink" width="52" height="52" viewBox="0 0 52 52"><defs><style>.b1e5ea06-e985-4aae-a400-45c7b843b4b1{fill:url(#a3b9f047-6267-49be-966e-30896eef1349);}</style><linearGradient id="a3b9f047-6267-49be-966e-30896eef1349" x1="11.35" y1="26" x2="40.65" y2="26" gradientUnits="userSpaceOnUse"><stop offset="0" stop-color="#51ade6"/><stop offset="1" stop-color="#17468e"/></linearGradient></defs><title>icon-5</title><path class="b1e5ea06-e985-4aae-a400-45c7b843b4b1" d="M39.93,14.92H12.07a2.06,2.06,0,0,0-2,2v5.8h0V35.08a2.08,2.08,0,0,0,2,2H39.93a2.06,2.06,0,0,0,2-2V22.74h0V16.92A2.08,2.08,0,0,0,39.93,14.92Zm-27.86,2H40v5.13L26,27.52,12,22V16.92ZM39.93,35.08H12V24.19l13.62,5.34h.73L40,24.2V35.08Z"/></svg>