<svg id="a9e04acc-5871-4167-af19-a38cb5959dcd" data-name="Ebene 1" xmlns="http://www.w3.org/2000/svg" xmlns:xlink="http://www.w3.org/1999/xlink" width="52" height="52" viewBox="0 0 52 52"><defs><style>.a18113ca-16a2-43ba-a971-53276d5d1327{fill:none;}.e1d44708-ec51-4e11-9070-7a34c4dd7160{clip-path:url(#a4311aa0-c3fd-46f3-a290-79a1769fadb5);}.eb8f7170-a133-43de-9db4-7c97dc414acf{fill:url(#b80102b6-9eba-49de-b6d1-bde553644add);}</style><clipPath id="a4311aa0-c3fd-46f3-a290-79a1769fadb5"><path class="a18113ca-16a2-43ba-a971-53276d5d1327" d="M10.51,10.51v31h12.2V30.57h-3a.7.7,0,0,1-.7-.71l0-3.71a.71.71,0,0,1,.71-.71h3V21.85c0-4.16,2.54-6.43,6.25-6.43h3a.71.71,0,0,1,.71.71v3.13A.71.71,0,0,1,32,20H30.14c-2,0-2.41,1-2.41,2.37v3.1h4.44a.71.71,0,0,1,.7.79l-.44,3.71a.7.7,0,0,1-.7.63h-4l0,10.92H41.49v-31Z"/></clipPath><linearGradient id="b80102b6-9eba-49de-b6d1-bde553644add" x1="-347.07" y1="53.87" x2="-346.07" y2="53.87" gradientTransform="matrix(30.99, 0, 0, -30.99, 10764.74, 1695.22)" gradientUnits="userSpaceOnUse"><stop offset="0" stop-color="#51ade6"/><stop offset="1" stop-color="#17468e"/></linearGradient></defs><title>icon-6</title><g class="e1d44708-ec51-4e11-9070-7a34c4dd7160"><rect class="eb8f7170-a133-43de-9db4-7c97dc414acf" x="10.51" y="10.51" width="30.99" height="30.99"/></g></svg>