<svg id="b99d094d-ef1a-4965-bf91-4f888d11a9e0" data-name="Ebene 1" xmlns="http://www.w3.org/2000/svg" xmlns:xlink="http://www.w3.org/1999/xlink" width="52" height="52" viewBox="0 0 52 52"><defs><style>.a057e76f-a6ce-4932-a03a-5e49e3ec3807{fill:url(#fb6d07bf-7cda-486d-8afe-19894a95d507);}.fdaf91fd-81f0-4229-bf3b-cb06a7284c59{fill:url(#abd4328b-c38e-4410-b7d4-1128c91c04b3);}.b8a601a0-d1ac-4aef-af24-aff847044420{fill:url(#aa43a3bc-233a-4945-abe1-2e5f1138d801);}</style><linearGradient id="fb6d07bf-7cda-486d-8afe-19894a95d507" y1="26" x2="52" y2="26" gradientUnits="userSpaceOnUse"><stop offset="0" stop-color="#51ade6"/><stop offset="1" stop-color="#17468e"/></linearGradient><linearGradient id="abd4328b-c38e-4410-b7d4-1128c91c04b3" x1="10.9" x2="41.1" xlink:href="#fb6d07bf-7cda-486d-8afe-19894a95d507"/><linearGradient id="aa43a3bc-233a-4945-abe1-2e5f1138d801" x1="19.21" x2="32.79" xlink:href="#fb6d07bf-7cda-486d-8afe-19894a95d507"/></defs><title>icon-21</title><path class="a057e76f-a6ce-4932-a03a-5e49e3ec3807" d="M26,0A26,26,0,1,0,52,26,26,26,0,0,0,26,0Zm0,47.92A21.92,21.92,0,1,1,47.92,26,22,22,0,0,1,26,47.92Z"/><path class="fdaf91fd-81f0-4229-bf3b-cb06a7284c59" d="M26,10.9A15.1,15.1,0,1,0,41.1,26,15.1,15.1,0,0,0,26,10.9ZM26,37A11,11,0,1,1,37,26,11,11,0,0,1,26,37Z"/><polygon class="b8a601a0-d1ac-4aef-af24-aff847044420" points="28.04 18.86 23.96 18.86 23.96 23.96 19.21 23.96 19.21 28.04 23.96 28.04 23.96 33.15 28.04 33.15 28.04 28.04 32.79 28.04 32.79 23.96 28.04 23.96 28.04 18.86"/></svg>