<svg id="adb0cf4e-fd5d-4632-af1f-3fab3e0c6106" data-name="Ebene 1" xmlns="http://www.w3.org/2000/svg" xmlns:xlink="http://www.w3.org/1999/xlink" width="52" height="52" viewBox="0 0 52 52"><defs><style>.a68df26e-1f04-4835-9b0d-bf1b005f99df{fill:none;}.b63afab7-5179-4ad4-8729-637a5379fb26{clip-path:url(#bf71df1c-f106-42b9-a4bf-eddc61a6d68d);}.a9ddc6f5-98e0-45ed-9004-d30b20835b93{fill:url(#a4e498cf-e05b-4427-8be3-90dcf9fb8525);}</style><clipPath id="bf71df1c-f106-42b9-a4bf-eddc61a6d68d"><path class="a68df26e-1f04-4835-9b0d-bf1b005f99df" d="M40.72,45.09a4.46,4.46,0,0,0,4.47,4.41,4.52,4.52,0,0,0,4.54-4.41,4.58,4.58,0,0,0-4.54-4.47,4.52,4.52,0,0,0-4.47,4.47M18,2.5C10.5,2.5,5.7,6.71,3.7,11.9l5.25,2c1.36-2.92,4-6.1,9-6.1,4.54,0,7.78,2.79,7.78,7.39,0,4.28-3.18,7.2-8,7.2H14.85v5.32h3.24c6.35,0,9.4,3.43,9.4,8.23,0,5.58-4.41,8.11-9.72,8.11-4.61,0-8.11-2.14-10.25-7.33L2.27,38.87C4.6,45,9.34,49.44,17.77,49.44c8.68,0,15.62-5.32,15.62-13.68a11.58,11.58,0,0,0-7.58-11.35,10.91,10.91,0,0,0,5.83-9.85C31.64,7.62,25.87,2.5,18,2.5Z"/></clipPath><linearGradient id="a4e498cf-e05b-4427-8be3-90dcf9fb8525" x1="-705.07" y1="53.52" x2="-704.16" y2="53.52" gradientTransform="matrix(51.79, 0, 0, -51.79, 36516.24, 2797.74)" gradientUnits="userSpaceOnUse"><stop offset="0" stop-color="#51ade6"/><stop offset="1" stop-color="#17468e"/></linearGradient></defs><title>icon-11</title><g class="b63afab7-5179-4ad4-8729-637a5379fb26"><rect class="a9ddc6f5-98e0-45ed-9004-d30b20835b93" x="2.27" y="2.5" width="47.46" height="47.01"/></g></svg>