<svg id="ed041c34-c3e4-45c7-aee9-2e62064d76b9" data-name="Ebene 1" xmlns="http://www.w3.org/2000/svg" xmlns:xlink="http://www.w3.org/1999/xlink" width="52" height="52" viewBox="0 0 52 52"><defs><style>.a41e254f-ffb6-4bb9-94c0-6823b007723a{fill:url(#adeac52a-1641-4b88-bf1f-44683f17a45d);}</style><linearGradient id="adeac52a-1641-4b88-bf1f-44683f17a45d" y1="26" x2="52" y2="26" gradientUnits="userSpaceOnUse"><stop offset="0" stop-color="#51ade6"/><stop offset="1" stop-color="#17468e"/></linearGradient></defs><title>icon-20</title><path class="a41e254f-ffb6-4bb9-94c0-6823b007723a" d="M22.6,35.77,13.82,26l8.75-9.75-3-2.73L8.34,26,19.56,38.5ZM44.74,26,33.56,13.5l-3,2.73L39.26,26l-8.77,9.79,3,2.73Zm3.18,0A21.92,21.92,0,1,1,26,4.08,21.95,21.95,0,0,1,47.92,26M52,26A26,26,0,1,0,26,52,26,26,0,0,0,52,26"/></svg>