<svg id="ff0e4c8e-0f28-4727-bec1-100710e46f1e" data-name="Ebene 1" xmlns="http://www.w3.org/2000/svg" xmlns:xlink="http://www.w3.org/1999/xlink" width="52" height="52" viewBox="0 0 52 52"><defs><style>.b9a5ebe8-7911-4288-85aa-cf7c563da95d{fill:url(#ebd498a2-b7a7-4f99-b647-60fd907ad1c9);}.bc539950-e7dc-4dce-ac91-5b9b5f965bbb{fill:url(#bf916a59-e983-4174-8751-2133bdb90ad4);}.aa3118db-9962-4051-99d3-9c3f74acb191{fill:url(#a6f1190d-a1a0-4e8f-82d5-d098d54c0042);}</style><linearGradient id="ebd498a2-b7a7-4f99-b647-60fd907ad1c9" x1="24.01" y1="30.53" x2="27.95" y2="30.53" gradientUnits="userSpaceOnUse"><stop offset="0" stop-color="#51ade6"/><stop offset="1" stop-color="#17468e"/></linearGradient><linearGradient id="bf916a59-e983-4174-8751-2133bdb90ad4" x1="23.51" y1="12.61" x2="28.45" y2="12.61" xlink:href="#ebd498a2-b7a7-4f99-b647-60fd907ad1c9"/><linearGradient id="a6f1190d-a1a0-4e8f-82d5-d098d54c0042" x1="-0.53" y1="26.02" x2="52.49" y2="26.02" xlink:href="#ebd498a2-b7a7-4f99-b647-60fd907ad1c9"/></defs><title>icon-14</title><rect class="b9a5ebe8-7911-4288-85aa-cf7c563da95d" x="24.05" y="19.18" width="3.86" height="22.69"/><path class="bc539950-e7dc-4dce-ac91-5b9b5f965bbb" d="M26,10.17a2.43,2.43,0,0,0-2.4,2.49,2.42,2.42,0,0,0,4.84,0A2.45,2.45,0,0,0,26,10.17Z"/><path class="aa3118db-9962-4051-99d3-9c3f74acb191" d="M26,0A26,26,0,1,0,52,26,26,26,0,0,0,26,0Zm0,47.92A21.92,21.92,0,1,1,47.9,26,21.94,21.94,0,0,1,26,47.94Z"/></svg>