<svg id="a1f84073-bdbe-4a39-9f1f-c6f048acf86a" data-name="Ebene 1" xmlns="http://www.w3.org/2000/svg" xmlns:xlink="http://www.w3.org/1999/xlink" width="52" height="52" viewBox="0 0 52 52"><defs><style>.fa1721eb-638f-4178-9bd0-e33c195b3197{fill:url(#a6548d33-5933-4239-aed8-9a4c1438bf29);}</style><linearGradient id="a6548d33-5933-4239-aed8-9a4c1438bf29" x1="6.22" y1="26" x2="45.78" y2="26" gradientUnits="userSpaceOnUse"><stop offset="0" stop-color="#51ade6"/><stop offset="1" stop-color="#17468e"/></linearGradient></defs><title>icon-19</title><path class="fa1721eb-638f-4178-9bd0-e33c195b3197" d="M32.74,28.85a16.09,16.09,0,0,0-18-26.62h0A16.07,16.07,0,0,0,6.82,16.12a15.9,15.9,0,0,0,2.23,8.15h0a16.07,16.07,0,0,0,20.26,6.61L41.75,52l3.43-2Zm-3.67-2.31h0a12.11,12.11,0,0,1-16.59-4.29h0A12.11,12.11,0,0,1,16.77,5.66h0a12.12,12.12,0,1,1,12.3,20.88Z"/></svg>