<svg id="eecb92a9-57a8-45a4-9810-c211e6afa443" data-name="Ebene 1" xmlns="http://www.w3.org/2000/svg" xmlns:xlink="http://www.w3.org/1999/xlink" width="52" height="52" viewBox="0 0 52 52"><defs><style>.a50dea5d-7cc3-4c00-a41f-3f292fb6253a{fill:url(#a6f092e4-5f1a-43e6-9300-ad56f6fd42a4);}</style><linearGradient id="a6f092e4-5f1a-43e6-9300-ad56f6fd42a4" x1="4.91" y1="26" x2="47.09" y2="26" gradientUnits="userSpaceOnUse"><stop offset="0" stop-color="#51ade6"/><stop offset="1" stop-color="#17468e"/></linearGradient></defs><title>icon-4</title><path class="a50dea5d-7cc3-4c00-a41f-3f292fb6253a" d="M47.23,11.57a7.36,7.36,0,0,1-4.09-6.45l0-1.23L42,3.35A36.83,36.83,0,0,0,26,0,36.83,36.83,0,0,0,10,3.35l-1.1.54,0,1.23a7.36,7.36,0,0,1-4.09,6.45l-1.17.57,0,1.3c.28,6.93,1.15,15.71,4.78,22.7h0c3.74,7.09,10.72,12.33,16.65,15.39L26,52l.92-.47c5.93-3.06,12.91-8.3,16.65-15.39s4.5-15.77,4.78-22.7l0-1.3ZM40,34.28c-2.92,5.62-8.8,10.36-14,13.19-5.21-2.83-11.09-7.57-14-13.19S8,21,7.73,14.49a11.36,11.36,0,0,0,5-8A33.67,33.67,0,0,1,26,4,33.67,33.67,0,0,1,39.23,6.51a11.36,11.36,0,0,0,5,8C44,21,43,28.67,40,34.28Z"/></svg>