<svg id="f16fc179-837c-47b5-bfe8-672bc93350fb" data-name="Ebene 1" xmlns="http://www.w3.org/2000/svg" xmlns:xlink="http://www.w3.org/1999/xlink" width="52" height="52" viewBox="0 0 52 52"><defs><style>.b528dc05-9f26-43a1-9246-e2fcc1b7a157{fill:none;}.ad93b602-baed-4074-8bdc-7b3f0c6bc531{clip-path:url(#b50b5590-6c18-4169-95f8-3e1ecb14c5d2);}.a4b6efaf-a97a-4f15-b061-d46a479a3af2{fill:url(#e0b4dec5-4109-4b3c-892f-c4f2eb54a015);}</style><clipPath id="b50b5590-6c18-4169-95f8-3e1ecb14c5d2"><path class="b528dc05-9f26-43a1-9246-e2fcc1b7a157" d="M19.09,27.8c0-5.18,3.05-9.63,7.8-9.63,3.26,0,5.6,2.73,5.6,6.9,0,4.88-3,9.69-7.66,9.69-3.54,0-5.74-2.73-5.74-7M27.24,0c-14.11,0-26,11.13-26,27s10.85,25,25,25a38.27,38.27,0,0,0,8.44-.79L36,45.61a34.92,34.92,0,0,1-9.43,1.22c-12.33,0-19.71-8.12-19.71-19.75,0-12.43,8.09-21.91,20.7-21.91,10.64,0,18.15,6.32,18.15,16.23,0,7.62-3,13.51-6.52,13.51-1.42,0-2.2-.94-2.2-2.73a31.79,31.79,0,0,1,.5-3.95L40,13.79H34.61l-.77,4.6a7.31,7.31,0,0,0-7.45-5.53c-7.94,0-13,7.83-13,14.86C13.34,35,17.67,40,23.63,40a9.52,9.52,0,0,0,8.64-5.32,5.78,5.78,0,0,0,6,4.89c6.74,0,12.48-7.55,12.48-18C50.78,9.19,41.35,0,27.24,0Z"/></clipPath><linearGradient id="e0b4dec5-4109-4b3c-892f-c4f2eb54a015" x1="-420.32" y1="53.67" x2="-419.09" y2="53.67" gradientTransform="matrix(40.45, 0, 0, -40.45, 17004.32, 2197.02)" gradientUnits="userSpaceOnUse"><stop offset="0" stop-color="#51ade6"/><stop offset="1" stop-color="#17468e"/></linearGradient></defs><title>icon-7</title><g class="ad93b602-baed-4074-8bdc-7b3f0c6bc531"><rect class="a4b6efaf-a97a-4f15-b061-d46a479a3af2" x="1.22" width="49.56" height="52"/></g></svg>