<svg xmlns="http://www.w3.org/2000/svg" xmlns:xlink="http://www.w3.org/1999/xlink" width="27.9" height="24.88" viewBox="0 0 27.9 24.88"><defs><style>.cls-1,.cls-2,.cls-3,.cls-4,.cls-5,.cls-6{stroke:#f2f2f2;stroke-miterlimit:10;stroke-width:0.75px;}.cls-1{fill:url(#Neues_Verlaufsfeld_1);}.cls-2{fill:url(#Neues_Verlaufsfeld_1-2);}.cls-3{fill:url(#Neues_Verlaufsfeld_1-3);}.cls-4{fill:url(#Neues_Verlaufsfeld_1-4);}.cls-5{fill:url(#Neues_Verlaufsfeld_1-5);}.cls-6{fill:url(#Neues_Verlaufsfeld_1-6);}</style><linearGradient id="Neues_Verlaufsfeld_1" x1="18.58" y1="5.68" x2="24.23" y2="5.68" gradientUnits="userSpaceOnUse"><stop offset="0" stop-color="#51ade6"/><stop offset="1" stop-color="#17468e"/></linearGradient><linearGradient id="Neues_Verlaufsfeld_1-2" x1="19.56" y1="19.01" x2="27.53" y2="19.01" xlink:href="#Neues_Verlaufsfeld_1"/><linearGradient id="Neues_Verlaufsfeld_1-3" x1="3.67" y1="5.68" x2="9.32" y2="5.68" xlink:href="#Neues_Verlaufsfeld_1"/><linearGradient id="Neues_Verlaufsfeld_1-4" x1="0.38" y1="19.01" x2="8.34" y2="19.01" xlink:href="#Neues_Verlaufsfeld_1"/><linearGradient id="Neues_Verlaufsfeld_1-5" x1="9.99" y1="5.68" x2="17.91" y2="5.68" xlink:href="#Neues_Verlaufsfeld_1"/><linearGradient id="Neues_Verlaufsfeld_1-6" x1="6.69" y1="19.05" x2="21.21" y2="19.05" xlink:href="#Neues_Verlaufsfeld_1"/></defs><title>Element 6</title><g id="Ebene_2" data-name="Ebene 2"><g id="Ebene_1-2" data-name="Ebene 1"><path class="cls-1" d="M20.26.38a3.14,3.14,0,0,0-1.68.5A9.62,9.62,0,0,1,19.1,2a10,10,0,0,1,.39,1.17,10.4,10.4,0,0,1,0,5.12A10.52,10.52,0,0,1,19.1,9.4a9,9,0,0,1-.52,1.08,3.14,3.14,0,0,0,1.68.5c2.19,0,4-2.38,4-5.3S22.45.38,20.26.38Z"/><path class="cls-2" d="M20.26,13.52a5.58,5.58,0,0,0-.7,0,9.48,9.48,0,0,1,1,1.24,12.71,12.71,0,0,1,.88,1.43A15,15,0,0,1,23.06,22c0,.42.05.84.05,1.27a4.81,4.81,0,0,1-.17,1.27h3.64c.52,0,1-.57,1-1.27C27.53,17.88,24.27,13.52,20.26,13.52Z"/><path class="cls-3" d="M8.42,8.24a10.09,10.09,0,0,1,0-5.12A8.43,8.43,0,0,1,8.8,2,9.62,9.62,0,0,1,9.32.88,3.14,3.14,0,0,0,7.64.38c-2.19,0-4,2.37-4,5.3s1.78,5.3,4,5.3a3.14,3.14,0,0,0,1.68-.5A9,9,0,0,1,8.8,9.4,8.29,8.29,0,0,1,8.42,8.24Z"/><path class="cls-4" d="M7.64,13.52c-4,0-7.26,4.36-7.26,9.72,0,.7.42,1.27.94,1.27H5a4.81,4.81,0,0,1-.17-1.27c0-.43,0-.85,0-1.27a15.15,15.15,0,0,1,1.6-5.74,12.71,12.71,0,0,1,.88-1.43,9.48,9.48,0,0,1,1-1.24A5.58,5.58,0,0,0,7.64,13.52Z"/><path class="cls-5" d="M17.63,3.72a5.77,5.77,0,0,0-.52-1.24A3.74,3.74,0,0,0,14,.38a3.74,3.74,0,0,0-3.16,2.1,6,6,0,0,0-.52,1.24,7,7,0,0,0,0,3.92,6,6,0,0,0,.52,1.24A3.74,3.74,0,0,0,14,11a3.74,3.74,0,0,0,3.16-2.1,6,6,0,0,0,.52-1.24,7,7,0,0,0,0-3.92Z"/><path class="cls-6" d="M21.15,22A11.16,11.16,0,0,0,19,16.26a7.47,7.47,0,0,0-.88-1,6.82,6.82,0,0,0-1-.8,6,6,0,0,0-2.21-.89v8c0,.7-.43,1.27-1,1.27S13,22.25,13,21.55v-8a6,6,0,0,0-2.21.89,6.82,6.82,0,0,0-1,.8,8.27,8.27,0,0,0-.88,1A11.16,11.16,0,0,0,6.75,22c0,.42-.06.84-.06,1.27,0,.7.42,1.27.95,1.27H20.26c.53,0,.95-.57.95-1.27C21.21,22.81,21.19,22.39,21.15,22Z"/></g></g></svg>